<?xml version="1.0" encoding="utf-8"?><svg viewBox="0 0 800 800" xmlns="http://www.w3.org/2000/svg" xmlns:xlink="http://www.w3.org/1999/xlink"><style>:root>svg{display:none}:root>svg:target{display:block}</style><svg viewBox="0 0 24 24" id="social-facebook-svgrepo-com" xmlns="http://www.w3.org/2000/svg"><path fill="none" d="M0 0h24v24H0z"/><path d="M5 3h14a2 2 0 012 2v14a2 2 0 01-2 2H5a2 2 0 01-2-2V5a2 2 0 012-2m13 2h-2.5A3.5 3.5 0 0012 8.5V11h-2v3h2v7h3v-7h3v-3h-3V9a1 1 0 011-1h2z"/></svg><svg viewBox="0 0 32 32" id="social-skype-svgrepo-com" xmlns="http://www.w3.org/2000/svg"><path d="M30.555 17.952c.101-.71.152-1.432.152-2.148 0-8.181-6.653-14.84-14.84-14.84-.684 0-1.381.051-2.059.139A9.317 9.317 0 009.41 0C4.29 0 .127 4.163.127 9.277c0 1.508.368 2.997 1.071 4.322a15.09 15.09 0 00-.165 2.205c0 8.181 6.653 14.84 14.84 14.84.577 0 1.16-.032 1.73-.101A9.254 9.254 0 0022.596 32c5.12 0 9.277-4.163 9.277-9.277a9.273 9.273 0 00-1.318-4.771zm-2.902 9.828a7.116 7.116 0 01-5.063 2.097 7.107 7.107 0 01-3.948-1.191l-.526-.349-.627.082c-.532.07-1.077.101-1.616.101a12.59 12.59 0 01-4.949-1.001c-1.514-.64-2.877-1.559-4.043-2.725s-2.085-2.528-2.725-4.043a12.59 12.59 0 01-1.001-4.949c0-.672.051-1.35.158-2.015l.089-.57-.279-.507a7.188 7.188 0 01-.874-3.434c0-1.914.741-3.707 2.097-5.063a7.116 7.116 0 015.063-2.097c1.223 0 2.433.317 3.492.912l.507.285.577-.082a12.568 12.568 0 011.888-.139c1.717 0 3.384.336 4.949 1.001 1.514.64 2.877 1.559 4.043 2.725s2.085 2.528 2.725 4.043a12.59 12.59 0 011.001 4.949c0 .659-.051 1.324-.152 1.977l-.095.621.336.539a7.146 7.146 0 01-1.027 8.834zm-9.568-13.358l-3.004-.678c-1.635-.368-2.459-.931-2.459-1.705 0-.551.228-1.001.678-1.343s1.09-.513 1.907-.513c.963 0 1.749.203 2.345.615.177.114.558.488 1.141 1.115.38.406.792.615 1.229.615.45 0 .843-.127 1.16-.38.323-.253.482-.602.482-1.039 0-1.008-.665-1.882-1.996-2.623-1.255-.703-2.63-1.052-4.125-1.052-1.724 0-3.156.368-4.296 1.096-1.331.862-1.996 2.104-1.996 3.72 0 2.218 1.286 3.656 3.859 4.309l4.055 1.027c1.02.26 1.533.811 1.533 1.641 0 .558-.247 1.027-.741 1.419-.539.437-1.255.659-2.142.659-1.033 0-1.863-.247-2.49-.741-.146-.101-.545-.551-1.198-1.356-.406-.494-.868-.741-1.375-.741-.437 0-.798.139-1.084.418s-.425.634-.425 1.071c0 .995.532 1.869 1.597 2.623 1.236.906 2.902 1.356 4.981 1.356 2.097 0 3.713-.475 4.854-1.426 1.077-.874 1.616-2.059 1.616-3.549.019-2.395-1.356-3.91-4.106-4.537z"/></svg><svg viewBox="0 0 32 32" id="social-vkontakte-svgrepo-com" xmlns="http://www.w3.org/2000/svg"><path d="M.094 7.75c0-1.188.813-1.656 1.813-1.719l4.656.031c.281 0 .531.188.625.469 1.063 3.438 2.375 5.563 3.938 7.969.094.188.25.281.406.281.125 0 .25-.063.344-.219l.094-.344.031-5.406c0-.781-.375-.906-1.25-1.031a.7.7 0 01-.563-.688c0-.063 0-.125.031-.188.438-1.344 1.813-2.031 3.75-2.031l1.75-.031c1.438 0 2.75.625 2.75 2.469v7.094c.125.094.25.156.406.156.25 0 .563-.156.813-.563 1.625-2.281 3.469-5 3.719-6.438 0-.063.031-.094.063-.156.344-.688 1.219-1.156 1.594-1.281a.627.627 0 01.281-.063h4.844l.313.031c.469 0 .813.313.969.594.281.438.219.906.25 1.094v.219c-.469 2.844-3.719 6.031-5.094 8.094-.188.25-.281.469-.281.688 0 .188.094.375.25.563l4.563 5.75c.25.344.375.75.375 1.094 0 1.031-.969 1.625-1.906 1.719l-.531.031h-4.75c-.094 0-.156.031-.25.031-.531 0-.969-.281-1.281-.594-1-1.219-1.969-2.469-2.938-3.688-.188-.25-.25-.281-.438-.406-.219.906-.406 1.844-.625 2.781l-.094.531c-.156.563-.563 1.156-1.313 1.313l-.438.031h-3.063c-5.406 0-10.25-7.688-13.656-17.281a2.747 2.747 0 01-.156-.906zm18.781 8.094c-.813 0-1.719-.469-1.719-1.344V7.312c0-.844-.375-1.156-1.406-1.156l-1.781.063c-1 0-1.563.156-2.031.469.719.344 1.375.813 1.375 2.125v5.5c-.094 1.094-1 1.813-1.875 1.813-.594 0-1.125-.344-1.438-.906-1.406-2.125-2.594-4.125-3.625-7l-.281-.813-4.156-.031c-.563 0-.5.031-.5.313 0 .188.031.438.063.594l.656 1.75c3.406 8.813 7.688 14.594 11.75 14.594h3.125c.438 0 .406-.531.5-.844l.594-2.75c.125-.281.219-.531.438-.75.25-.25.531-.344.813-.344.594 0 1.156.469 1.531.906l2.656 3.375c.219.344.406.406.531.406h5.156c.5 0 .938-.156.938-.469a.6.6 0 00-.094-.313l-4.531-5.656c-.375-.469-.531-.938-.531-1.406 0-.5.188-1 .5-1.438 1.313-1.969 4.125-4.781 4.781-7.094l.094-.406c-.031-.156-.031-.281-.063-.438h-4.906a1.702 1.702 0 00-.75.563l-.188.594c-.719 2-2.688 4.75-4.094 6.656-.469.438-1 .625-1.531.625z"/></svg></svg>